<svg width="624" height="105" viewBox="0 0 624 105" fill="none" xmlns="http://www.w3.org/2000/svg">
<path d="M73.0933 57.1933L31.02 102.04L1.5 74.16L22.82 51.2L26.92 55.3L9.7 74.16L31.02 94.66L69.56 53.66L73.66 57.76" stroke="#F5F5F7" stroke-width="1.64"/>
<path d="M72.84 56.94L63 61.04L59.72 70.88L49.88 74.98L45.78 84.82L36.76 88.92L32.66 100.4M27.74 97.94L31.02 94.66" stroke="#F5F5F7" stroke-width="1.64"/>
<path d="M27.74 91.38L17.08 88.1L12.16 76.62L9.7 74.16L5.6 78.26" stroke="#F5F5F7" stroke-width="1.64"/>
<path d="M3.14 72.52L17.08 65.96L22 52.02" stroke="#F5F5F7" stroke-width="1.64"/>
<path d="M31.5667 49.6867L73.64 4.83999L103.16 32.72L81.84 55.68L77.74 51.58L94.96 32.72L73.64 12.22L35.1 53.22L31 49.12" stroke="#F5F5F7" stroke-width="1.64"/>
<path d="M31.82 49.94L41.66 45.84L44.94 36L54.78 31.9L58.88 22.06L67.9 17.96L72 6.48M76.92 8.94L73.64 12.22" stroke="#F5F5F7" stroke-width="1.64"/>
<path d="M76.92 15.5L87.58 18.78L92.5 30.26L94.96 32.72L99.06 28.62" stroke="#F5F5F7" stroke-width="1.64"/>
<path d="M101.52 34.36L87.58 40.92L82.66 54.86" stroke="#F5F5F7" stroke-width="1.64"/>
<path d="M48.8067 73.5933L3.96 31.52L31.84 2L54.8 23.32L50.7 27.42L31.84 10.2L11.34 31.52L52.34 70.06L48.24 74.16" stroke="#F5F5F7" stroke-width="1.64"/>
<path d="M49.06 73.34L44.96 63.5L35.12 60.22L31.02 50.38L21.18 46.28L17.08 37.26L5.6 33.16M8.06 28.24L11.34 31.52" stroke="#F5F5F7" stroke-width="1.64"/>
<path d="M14.62 28.24L17.9 17.58L29.38 12.66L31.84 10.2L27.74 6.10001" stroke="#F5F5F7" stroke-width="1.64"/>
<path d="M33.48 3.63998L40.04 17.58L53.98 22.5" stroke="#F5F5F7" stroke-width="1.64"/>
<path d="M55.8733 32.0867L100.72 74.16L72.84 103.68L49.88 82.36L53.98 78.26L72.84 95.48L93.34 74.16L52.34 35.62L56.44 31.52" stroke="#F5F5F7" stroke-width="1.64"/>
<path d="M55.62 32.34L59.72 42.18L69.56 45.46L73.66 55.3L83.5 59.4L87.6 68.42L99.08 72.52M96.62 77.44L93.34 74.16" stroke="#F5F5F7" stroke-width="1.64"/>
<path d="M90.06 77.44L86.78 88.1L75.3 93.02L72.84 95.48L76.94 99.58" stroke="#F5F5F7" stroke-width="1.64"/>
<path d="M71.2 102.04L64.64 88.1L50.7 83.18" stroke="#F5F5F7" stroke-width="1.64"/>
<path d="M151.808 77.832C149.355 77.832 146.997 77.448 144.736 76.68C142.475 75.912 140.501 74.8133 138.816 73.384C137.131 71.9333 135.925 70.216 135.2 68.232L141.44 65.896C141.803 66.92 142.496 67.8373 143.52 68.648C144.565 69.4373 145.803 70.056 147.232 70.504C148.683 70.952 150.208 71.176 151.808 71.176C153.515 71.176 155.115 70.8987 156.608 70.344C158.123 69.7893 159.339 69.0213 160.256 68.04C161.195 67.0587 161.664 65.9067 161.664 64.584C161.664 63.2187 161.173 62.0987 160.192 61.224C159.232 60.3493 157.995 59.656 156.48 59.144C154.987 58.632 153.429 58.248 151.808 57.992C148.672 57.48 145.856 56.7333 143.36 55.752C140.885 54.7707 138.923 53.3947 137.472 51.624C136.043 49.8533 135.328 47.5493 135.328 44.712C135.328 42.0453 136.085 39.72 137.6 37.736C139.136 35.752 141.152 34.216 143.648 33.128C146.165 32.0187 148.885 31.464 151.808 31.464C154.219 31.464 156.544 31.848 158.784 32.616C161.045 33.3627 163.029 34.4613 164.736 35.912C166.464 37.3413 167.701 39.08 168.448 41.128L162.144 43.4C161.781 42.3547 161.088 41.448 160.064 40.68C159.04 39.8907 157.803 39.272 156.352 38.824C154.923 38.376 153.408 38.152 151.808 38.152C150.101 38.1307 148.501 38.408 147.008 38.984C145.536 39.5387 144.331 40.3067 143.392 41.288C142.453 42.2693 141.984 43.4107 141.984 44.712C141.984 46.312 142.421 47.528 143.296 48.36C144.171 49.192 145.344 49.8107 146.816 50.216C148.309 50.6 149.973 50.952 151.808 51.272C154.752 51.7413 157.472 52.52 159.968 53.608C162.485 54.696 164.501 56.1467 166.016 57.96C167.552 59.752 168.32 61.96 168.32 64.584C168.32 67.2293 167.552 69.5547 166.016 71.56C164.501 73.544 162.485 75.0907 159.968 76.2C157.472 77.288 154.752 77.832 151.808 77.832ZM207.853 32.2V38.856H193.581V77H186.925V38.856H172.685V32.2H207.853ZM214.278 77V32.2H242.086V38.856H220.934V49.672H237.958V56.328H220.934V70.344H242.086V77H214.278ZM249.403 77V32.2H277.211V38.856H256.059V49.672H273.083V56.328H256.059V70.344H277.211V77H249.403ZM284.528 77V32.2H291.184V70.344H310.48V77H284.528Z" fill="#F5F5F7"/>
<path d="M353.639 77.832C350.609 77.832 347.761 77.2347 345.095 76.04C342.428 74.824 340.081 73.16 338.055 71.048C336.049 68.9147 334.471 66.44 333.319 63.624C332.188 60.808 331.623 57.8 331.623 54.6C331.623 51.4 332.188 48.392 333.319 45.576C334.471 42.76 336.049 40.296 338.055 38.184C340.081 36.0507 342.428 34.3867 345.095 33.192C347.761 31.976 350.609 31.368 353.639 31.368C357.265 31.368 360.604 32.2107 363.655 33.896C366.705 35.5813 369.233 37.8213 371.239 40.616L365.319 43.784C363.932 42.0347 362.215 40.6373 360.167 39.592C358.119 38.5467 355.943 38.024 353.639 38.024C351.505 38.024 349.511 38.4613 347.655 39.336C345.799 40.2107 344.167 41.4053 342.759 42.92C341.351 44.4347 340.252 46.1947 339.463 48.2C338.673 50.2053 338.279 52.3387 338.279 54.6C338.279 56.8827 338.673 59.0267 339.463 61.032C340.252 63.016 341.351 64.776 342.759 66.312C344.188 67.8267 345.831 69.0213 347.687 69.896C349.543 70.7493 351.527 71.176 353.639 71.176C355.985 71.176 358.172 70.6533 360.199 69.608C362.247 68.5413 363.953 67.1333 365.319 65.384L371.239 68.616C369.233 71.4107 366.705 73.6507 363.655 75.336C360.604 77 357.265 77.832 353.639 77.832ZM398.078 77.832C395.048 77.832 392.2 77.2347 389.534 76.04C386.867 74.824 384.52 73.1493 382.494 71.016C380.467 68.8827 378.878 66.4187 377.726 63.624C376.574 60.808 375.998 57.8 375.998 54.6C375.998 51.4 376.574 48.4027 377.726 45.608C378.878 42.792 380.467 40.3173 382.494 38.184C384.52 36.0507 386.867 34.3867 389.534 33.192C392.2 31.976 395.048 31.368 398.078 31.368C401.128 31.368 403.987 31.976 406.654 33.192C409.32 34.3867 411.667 36.0507 413.694 38.184C415.72 40.3173 417.299 42.792 418.43 45.608C419.582 48.4027 420.158 51.4 420.158 54.6C420.158 57.8 419.582 60.808 418.43 63.624C417.299 66.4187 415.72 68.8827 413.694 71.016C411.667 73.1493 409.32 74.824 406.654 76.04C403.987 77.2347 401.128 77.832 398.078 77.832ZM398.078 71.176C400.211 71.176 402.206 70.7387 404.062 69.864C405.918 68.9893 407.55 67.7947 408.958 66.28C410.387 64.744 411.496 62.984 412.286 61C413.096 58.9947 413.502 56.8613 413.502 54.6C413.502 52.3387 413.096 50.2053 412.286 48.2C411.496 46.1947 410.387 44.4347 408.958 42.92C407.55 41.384 405.918 40.1893 404.062 39.336C402.206 38.4613 400.211 38.024 398.078 38.024C395.944 38.024 393.95 38.4613 392.094 39.336C390.238 40.2107 388.595 41.416 387.166 42.952C385.758 44.4667 384.648 46.2267 383.838 48.232C383.048 50.216 382.654 52.3387 382.654 54.6C382.654 56.8827 383.048 59.0267 383.838 61.032C384.648 63.016 385.758 64.776 387.166 66.312C388.595 67.8267 390.238 69.0213 392.094 69.896C393.95 70.7493 395.944 71.176 398.078 71.176ZM426.215 77V32.2H433.415L453.991 64.968V32.2H460.647V77H453.447L432.871 44.232V77H426.215ZM468.34 77V32.2H496.148V38.856H474.996V49.672H492.02V56.328H474.996V70.344H496.148V77H468.34ZM523.576 77.832C520.547 77.832 517.699 77.2347 515.032 76.04C512.365 74.824 510.019 73.16 507.992 71.048C505.987 68.9147 504.408 66.44 503.256 63.624C502.125 60.808 501.56 57.8 501.56 54.6C501.56 51.4 502.125 48.392 503.256 45.576C504.408 42.76 505.987 40.296 507.992 38.184C510.019 36.0507 512.365 34.3867 515.032 33.192C517.699 31.976 520.547 31.368 523.576 31.368C527.203 31.368 530.541 32.2107 533.592 33.896C536.643 35.5813 539.171 37.8213 541.176 40.616L535.256 43.784C533.869 42.0347 532.152 40.6373 530.104 39.592C528.056 38.5467 525.88 38.024 523.576 38.024C521.443 38.024 519.448 38.4613 517.592 39.336C515.736 40.2107 514.104 41.4053 512.696 42.92C511.288 44.4347 510.189 46.1947 509.4 48.2C508.611 50.2053 508.216 52.3387 508.216 54.6C508.216 56.8827 508.611 59.0267 509.4 61.032C510.189 63.016 511.288 64.776 512.696 66.312C514.125 67.8267 515.768 69.0213 517.624 69.896C519.48 70.7493 521.464 71.176 523.576 71.176C525.923 71.176 528.109 70.6533 530.136 69.608C532.184 68.5413 533.891 67.1333 535.256 65.384L541.176 68.616C539.171 71.4107 536.643 73.6507 533.592 75.336C530.541 77 527.203 77.832 523.576 77.832ZM581.166 32.2V38.856H566.894V77H560.238V38.856H545.998V32.2H581.166ZM596.661 32.2H604.437L620.725 77H613.685L610.581 68.488H590.517L587.445 77H580.373L596.661 32.2ZM592.981 61.832H608.117L600.533 41.032L592.981 61.832Z" fill="#F5F5F7"/>
</svg>
