<svg width="105" height="105" viewBox="0 0 105 105" fill="none" xmlns="http://www.w3.org/2000/svg">
<path d="M73.5933 57.1933L31.52 102.04L2 74.16L23.32 51.2L27.42 55.3L10.2 74.16L31.52 94.66L70.06 53.66L74.16 57.76" stroke="#DBA04E" stroke-width="1.64"/>
<path d="M73.34 56.94L63.5 61.04L60.22 70.88L50.38 74.98L46.28 84.82L37.26 88.92L33.16 100.4M28.24 97.94L31.52 94.66" stroke="#DBA04E" stroke-width="1.64"/>
<path d="M28.24 91.38L17.58 88.1L12.66 76.62L10.2 74.16L6.10001 78.26" stroke="#DBA04E" stroke-width="1.64"/>
<path d="M3.64 72.52L17.58 65.96L22.5 52.02" stroke="#DBA04E" stroke-width="1.64"/>
<path d="M32.0667 49.6867L74.14 4.84L103.66 32.72L82.34 55.68L78.24 51.58L95.46 32.72L74.14 12.22L35.6 53.22L31.5 49.12" stroke="#DBA04E" stroke-width="1.64"/>
<path d="M32.32 49.94L42.16 45.84L45.44 36L55.28 31.9L59.38 22.06L68.4 17.96L72.5 6.48M77.42 8.94L74.14 12.22" stroke="#DBA04E" stroke-width="1.64"/>
<path d="M77.42 15.5L88.08 18.78L93 30.26L95.46 32.72L99.56 28.62" stroke="#DBA04E" stroke-width="1.64"/>
<path d="M102.02 34.36L88.08 40.92L83.16 54.86" stroke="#DBA04E" stroke-width="1.64"/>
<path d="M49.3067 73.5933L4.45999 31.52L32.34 2L55.3 23.32L51.2 27.42L32.34 10.2L11.84 31.52L52.84 70.06L48.74 74.16" stroke="#DBA04E" stroke-width="1.64"/>
<path d="M49.56 73.34L45.46 63.5L35.62 60.22L31.52 50.38L21.68 46.28L17.58 37.26L6.1 33.16M8.56 28.24L11.84 31.52" stroke="#DBA04E" stroke-width="1.64"/>
<path d="M15.12 28.24L18.4 17.58L29.88 12.66L32.34 10.2L28.24 6.1" stroke="#DBA04E" stroke-width="1.64"/>
<path d="M33.98 3.64L40.54 17.58L54.48 22.5" stroke="#DBA04E" stroke-width="1.64"/>
<path d="M56.3733 32.0867L101.22 74.16L73.34 103.68L50.38 82.36L54.48 78.26L73.34 95.48L93.84 74.16L52.84 35.62L56.94 31.52" stroke="#DBA04E" stroke-width="1.64"/>
<path d="M56.12 32.34L60.22 42.18L70.06 45.46L74.16 55.3L84 59.4L88.1 68.42L99.58 72.52M97.12 77.44L93.84 74.16" stroke="#DBA04E" stroke-width="1.64"/>
<path d="M90.56 77.44L87.28 88.1L75.8 93.02L73.34 95.48L77.44 99.58" stroke="#DBA04E" stroke-width="1.64"/>
<path d="M71.7 102.04L65.14 88.1L51.2 83.18" stroke="#DBA04E" stroke-width="1.64"/>
</svg>
