<svg width="105" height="104" viewBox="0 0 105 104" fill="none" xmlns="http://www.w3.org/2000/svg">
<path d="M73.0933 56.3533L31.02 101.2L1.5 73.32L22.82 50.36L26.92 54.46L9.7 73.32L31.02 93.82L69.56 52.82L73.66 56.92" stroke="white" stroke-width="1.64"/>
<path d="M72.84 56.1L63 60.2L59.72 70.04L49.88 74.14L45.78 83.98L36.76 88.08L32.66 99.56M27.74 97.1L31.02 93.82" stroke="white" stroke-width="1.64"/>
<path d="M27.74 90.54L17.08 87.26L12.16 75.78L9.7 73.32L5.6 77.42" stroke="white" stroke-width="1.64"/>
<path d="M3.14 71.68L17.08 65.12L22 51.18" stroke="white" stroke-width="1.64"/>
<path d="M31.5667 48.8467L73.64 4L103.16 31.88L81.84 54.84L77.74 50.74L94.96 31.88L73.64 11.38L35.1 52.38L31 48.28" stroke="white" stroke-width="1.64"/>
<path d="M31.82 49.1L41.66 45L44.94 35.16L54.78 31.06L58.88 21.22L67.9 17.12L72 5.64M76.92 8.1L73.64 11.38" stroke="white" stroke-width="1.64"/>
<path d="M76.92 14.66L87.58 17.94L92.5 29.42L94.96 31.88L99.06 27.78" stroke="white" stroke-width="1.64"/>
<path d="M101.52 33.52L87.58 40.08L82.66 54.02" stroke="white" stroke-width="1.64"/>
<path d="M48.8067 72.7533L3.96 30.68L31.84 1.16L54.8 22.48L50.7 26.58L31.84 9.36L11.34 30.68L52.34 69.22L48.24 73.32" stroke="white" stroke-width="1.64"/>
<path d="M49.06 72.5L44.96 62.66L35.12 59.38L31.02 49.54L21.18 45.44L17.08 36.42L5.6 32.32M8.06 27.4L11.34 30.68" stroke="white" stroke-width="1.64"/>
<path d="M14.62 27.4L17.9 16.74L29.38 11.82L31.84 9.36L27.74 5.26" stroke="white" stroke-width="1.64"/>
<path d="M33.48 2.8L40.04 16.74L53.98 21.66" stroke="white" stroke-width="1.64"/>
<path d="M55.8733 31.2467L100.72 73.32L72.84 102.84L49.88 81.52L53.98 77.42L72.84 94.64L93.34 73.32L52.34 34.78L56.44 30.68" stroke="white" stroke-width="1.64"/>
<path d="M55.62 31.5L59.72 41.34L69.56 44.62L73.66 54.46L83.5 58.56L87.6 67.58L99.08 71.68M96.62 76.6L93.34 73.32" stroke="white" stroke-width="1.64"/>
<path d="M90.06 76.6L86.78 87.26L75.3 92.18L72.84 94.64L76.94 98.74" stroke="white" stroke-width="1.64"/>
<path d="M71.2 101.2L64.64 87.26L50.7 82.34" stroke="white" stroke-width="1.64"/>
</svg>
