<svg width="202" height="118" viewBox="0 0 202 118" fill="none" xmlns="http://www.w3.org/2000/svg">
<path d="M117.1 43.798L84.4758 78.5731L61.5854 56.9544L78.1174 39.1507L81.2966 42.3299L67.9438 56.9544L84.4758 72.8505L114.361 41.0582L117.54 44.2375" stroke="white" stroke-width="1.27169"/>
<path d="M116.904 43.6016L109.274 46.7808L106.73 54.411L99.1002 57.5902L95.921 65.2204L88.9267 68.3996L85.7474 77.3014M81.9324 75.3939L84.4758 72.8505" stroke="white" stroke-width="1.27169"/>
<path d="M81.9324 70.3071L73.6664 67.7637L69.8513 58.8619L67.9438 56.9544L64.7646 60.1336" stroke="white" stroke-width="1.27169"/>
<path d="M62.8571 55.6827L73.6664 50.5959L77.4815 39.7866" stroke="white" stroke-width="1.27169"/>
<path d="M84.8997 37.9772L117.524 3.20218L140.415 24.8209L123.883 42.6246L120.703 39.4453L134.056 24.8209L117.524 8.92478L87.6395 40.717L84.4603 37.5378" stroke="white" stroke-width="1.27169"/>
<path d="M85.0961 38.1736L92.7262 34.9944L95.2696 27.3643L102.9 24.1851L106.079 16.5549L113.073 13.3757L116.252 4.47386M120.068 6.38139L117.524 8.92477" stroke="white" stroke-width="1.27169"/>
<path d="M120.068 11.4682L128.334 14.0116L132.149 22.9134L134.056 24.8209L137.235 21.6417" stroke="white" stroke-width="1.27169"/>
<path d="M139.143 26.0926L128.334 31.1793L124.518 41.9887" stroke="white" stroke-width="1.27169"/>
<path d="M98.2679 56.5149L63.4929 23.8904L85.1116 0.999999L102.915 17.532L99.7361 20.7112L85.1116 7.35845L69.2155 23.8904L101.008 53.7751L97.8285 56.9544" stroke="white" stroke-width="1.27169"/>
<path d="M98.4644 56.3185L95.2851 48.6884L87.655 46.145L84.4758 38.5149L76.8456 35.3356L73.6664 28.3413L64.7646 25.1621M66.6721 21.347L69.2155 23.8904" stroke="white" stroke-width="1.27169"/>
<path d="M71.7588 21.347L74.3022 13.0811L83.204 9.26599L85.1116 7.35845L81.9323 4.17923" stroke="white" stroke-width="1.27169"/>
<path d="M86.3833 2.2717L91.4701 13.0811L102.279 16.8961" stroke="white" stroke-width="1.27169"/>
<path d="M103.748 24.3299L138.523 56.9544L116.904 79.8448L99.1002 63.3128L102.279 60.1336L116.904 73.4863L132.8 56.9544L101.008 27.0697L104.187 23.8904" stroke="white" stroke-width="1.27169"/>
<path d="M103.551 24.5263L106.73 32.1564L114.361 34.6998L117.54 42.3299L125.17 45.5092L128.349 52.5034L137.251 55.6827M135.343 59.4977L132.8 56.9544" stroke="white" stroke-width="1.27169"/>
<path d="M130.257 59.4977L127.713 67.7637L118.811 71.5788L116.904 73.4863L120.083 76.6656" stroke="white" stroke-width="1.27169"/>
<path d="M115.632 78.5731L110.545 67.7637L99.7361 63.9487" stroke="white" stroke-width="1.27169"/>
<path d="M8.13255 114.093C7.12529 114.093 6.15744 113.935 5.22901 113.62C4.30057 113.305 3.49039 112.854 2.79844 112.267C2.10649 111.671 1.61162 110.966 1.31382 110.151L3.87577 109.192C4.02467 109.613 4.30933 109.989 4.72976 110.322C5.15894 110.646 5.66695 110.9 6.25379 111.084C6.84939 111.268 7.47564 111.36 8.13255 111.36C8.83326 111.36 9.49017 111.246 10.1033 111.019C10.7252 110.791 11.2244 110.475 11.601 110.073C11.9864 109.67 12.1791 109.197 12.1791 108.654C12.1791 108.093 11.9777 107.633 11.5748 107.274C11.1806 106.915 10.6726 106.63 10.0507 106.42C9.43762 106.21 8.79822 106.052 8.13255 105.947C6.84501 105.737 5.68885 105.43 4.66407 105.028C3.64804 104.625 2.84223 104.06 2.24663 103.333C1.65979 102.606 1.36637 101.66 1.36637 100.495C1.36637 99.4 1.67731 98.4453 2.29919 97.6307C2.92982 96.8161 3.75753 96.1855 4.78231 95.7388C5.81585 95.2833 6.9326 95.0556 8.13255 95.0556C9.1223 95.0556 10.077 95.2133 10.9967 95.5286C11.9251 95.8351 12.7397 96.2862 13.4404 96.8818C14.1499 97.4687 14.6579 98.1825 14.9644 99.0233L12.3762 99.9562C12.2273 99.527 11.9426 99.1547 11.5222 98.8394C11.1018 98.5153 10.5938 98.2613 9.99818 98.0774C9.41134 97.8935 8.78946 97.8015 8.13255 97.8015C7.43185 97.7927 6.77494 97.9066 6.16182 98.1431C5.55746 98.3708 5.06259 98.6861 4.6772 99.089C4.29182 99.4919 4.09912 99.9605 4.09912 100.495C4.09912 101.152 4.27868 101.651 4.63779 101.993C4.9969 102.334 5.47863 102.588 6.08299 102.755C6.69611 102.912 7.3793 103.057 8.13255 103.188C9.34127 103.381 10.458 103.701 11.4828 104.147C12.5163 104.594 13.344 105.19 13.9659 105.934C14.5966 106.67 14.9119 107.576 14.9119 108.654C14.9119 109.74 14.5966 110.694 13.9659 111.518C13.344 112.332 12.5163 112.967 11.4828 113.423C10.458 113.87 9.34127 114.093 8.13255 114.093ZM31.1429 95.3578V98.0905H25.2833V113.751H22.5505V98.0905H16.704V95.3578H31.1429ZM33.7806 113.751V95.3578H45.1977V98.0905H36.5133V102.531H43.5029V105.264H36.5133V111.019H45.1977V113.751H33.7806ZM48.2018 113.751V95.3578H59.6189V98.0905H50.9346V102.531H57.9241V105.264H50.9346V111.019H59.6189V113.751H48.2018ZM62.6231 113.751V95.3578H65.3558V111.019H73.2782V113.751H62.6231Z" fill="#DBA04E"/>
<path d="M90.9979 114.093C89.7542 114.093 88.5849 113.848 87.49 113.357C86.3952 112.858 85.4317 112.175 84.5996 111.308C83.7763 110.432 83.1281 109.416 82.6552 108.26C82.1909 107.103 81.9588 105.868 81.9588 104.555C81.9588 103.241 82.1909 102.006 82.6552 100.85C83.1281 99.6934 83.7763 98.6818 84.5996 97.8146C85.4317 96.9387 86.3952 96.2556 87.49 95.7651C88.5849 95.2658 89.7542 95.0162 90.9979 95.0162C92.4869 95.0162 93.8577 95.3622 95.1102 96.0541C96.3627 96.7461 97.4006 97.6657 98.2239 98.8131L95.7934 100.114C95.224 99.3956 94.519 98.8219 93.6781 98.3927C92.8373 97.9635 91.9439 97.7489 90.9979 97.7489C90.122 97.7489 89.3031 97.9285 88.5411 98.2876C87.7791 98.6467 87.109 99.1372 86.5309 99.7591C85.9528 100.381 85.5018 101.104 85.1777 101.927C84.8536 102.75 84.6916 103.626 84.6916 104.555C84.6916 105.492 84.8536 106.372 85.1777 107.195C85.5018 108.01 85.9528 108.732 86.5309 109.363C87.1178 109.985 87.7922 110.475 88.5542 110.835C89.3162 111.185 90.1308 111.36 90.9979 111.36C91.9614 111.36 92.8592 111.146 93.6913 110.716C94.5321 110.278 95.2328 109.7 95.7934 108.982L98.2239 110.309C97.4006 111.456 96.3627 112.376 95.1102 113.068C93.8577 113.751 92.4869 114.093 90.9979 114.093ZM109.243 114.093C107.999 114.093 106.83 113.848 105.735 113.357C104.64 112.858 103.677 112.17 102.845 111.294C102.013 110.419 101.36 109.407 100.887 108.26C100.414 107.103 100.178 105.868 100.178 104.555C100.178 103.241 100.414 102.01 100.887 100.863C101.36 99.7065 102.013 98.6905 102.845 97.8146C103.677 96.9387 104.64 96.2556 105.735 95.7651C106.83 95.2658 107.999 95.0162 109.243 95.0162C110.496 95.0162 111.669 95.2658 112.764 95.7651C113.859 96.2556 114.823 96.9387 115.655 97.8146C116.487 98.6905 117.135 99.7065 117.599 100.863C118.072 102.01 118.309 103.241 118.309 104.555C118.309 105.868 118.072 107.103 117.599 108.26C117.135 109.407 116.487 110.419 115.655 111.294C114.823 112.17 113.859 112.858 112.764 113.357C111.669 113.848 110.496 114.093 109.243 114.093ZM109.243 111.36C110.119 111.36 110.938 111.181 111.7 110.821C112.462 110.462 113.132 109.972 113.71 109.35C114.297 108.719 114.752 107.997 115.077 107.182C115.409 106.359 115.576 105.483 115.576 104.555C115.576 103.626 115.409 102.75 115.077 101.927C114.752 101.104 114.297 100.381 113.71 99.7591C113.132 99.1285 112.462 98.638 111.7 98.2876C110.938 97.9285 110.119 97.7489 109.243 97.7489C108.367 97.7489 107.548 97.9285 106.786 98.2876C106.024 98.6467 105.35 99.1416 104.763 99.7722C104.185 100.394 103.73 101.117 103.397 101.94C103.073 102.755 102.911 103.626 102.911 104.555C102.911 105.492 103.073 106.372 103.397 107.195C103.73 108.01 104.185 108.732 104.763 109.363C105.35 109.985 106.024 110.475 106.786 110.835C107.548 111.185 108.367 111.36 109.243 111.36ZM120.796 113.751V95.3578H123.752L132.2 108.811V95.3578H134.932V113.751H131.976L123.528 100.298V113.751H120.796ZM138.091 113.751V95.3578H149.508V98.0905H140.824V102.531H147.813V105.264H140.824V111.019H149.508V113.751H138.091ZM160.769 114.093C159.525 114.093 158.356 113.848 157.261 113.357C156.166 112.858 155.203 112.175 154.371 111.308C153.547 110.432 152.899 109.416 152.426 108.26C151.962 107.103 151.73 105.868 151.73 104.555C151.73 103.241 151.962 102.006 152.426 100.85C152.899 99.6934 153.547 98.6818 154.371 97.8146C155.203 96.9387 156.166 96.2556 157.261 95.7651C158.356 95.2658 159.525 95.0162 160.769 95.0162C162.258 95.0162 163.629 95.3622 164.881 96.0541C166.134 96.7461 167.172 97.6657 167.995 98.8131L165.564 100.114C164.995 99.3956 164.29 98.8219 163.449 98.3927C162.608 97.9635 161.715 97.7489 160.769 97.7489C159.893 97.7489 159.074 97.9285 158.312 98.2876C157.55 98.6467 156.88 99.1372 156.302 99.7591C155.724 100.381 155.273 101.104 154.949 101.927C154.625 102.75 154.463 103.626 154.463 104.555C154.463 105.492 154.625 106.372 154.949 107.195C155.273 108.01 155.724 108.732 156.302 109.363C156.889 109.985 157.563 110.475 158.325 110.835C159.087 111.185 159.902 111.36 160.769 111.36C161.732 111.36 162.63 111.146 163.462 110.716C164.303 110.278 165.004 109.7 165.564 108.982L167.995 110.309C167.172 111.456 166.134 112.376 164.881 113.068C163.629 113.751 162.258 114.093 160.769 114.093ZM184.413 95.3578V98.0905H178.554V113.751H175.821V98.0905H169.975V95.3578H184.413ZM190.775 95.3578H193.968L200.655 113.751H197.765L196.49 110.257H188.253L186.991 113.751H184.088L190.775 95.3578ZM189.264 107.524H195.479L192.365 98.9839L189.264 107.524Z" fill="#1D537C"/>
<path d="M90.9979 114.093C89.7542 114.093 88.5849 113.848 87.49 113.357C86.3952 112.858 85.4317 112.175 84.5996 111.308C83.7763 110.432 83.1281 109.416 82.6552 108.26C82.1909 107.103 81.9588 105.868 81.9588 104.555C81.9588 103.241 82.1909 102.006 82.6552 100.85C83.1281 99.6934 83.7763 98.6818 84.5996 97.8146C85.4317 96.9387 86.3952 96.2556 87.49 95.7651C88.5849 95.2658 89.7542 95.0162 90.9979 95.0162C92.4869 95.0162 93.8577 95.3622 95.1102 96.0541C96.3627 96.7461 97.4006 97.6657 98.2239 98.8131L95.7934 100.114C95.224 99.3956 94.519 98.8219 93.6781 98.3927C92.8373 97.9635 91.9439 97.7489 90.9979 97.7489C90.122 97.7489 89.3031 97.9285 88.5411 98.2876C87.7791 98.6467 87.109 99.1372 86.5309 99.7591C85.9528 100.381 85.5018 101.104 85.1777 101.927C84.8536 102.75 84.6916 103.626 84.6916 104.555C84.6916 105.492 84.8536 106.372 85.1777 107.195C85.5018 108.01 85.9528 108.732 86.5309 109.363C87.1178 109.985 87.7922 110.475 88.5542 110.835C89.3162 111.185 90.1308 111.36 90.9979 111.36C91.9614 111.36 92.8592 111.146 93.6913 110.716C94.5321 110.278 95.2328 109.7 95.7934 108.982L98.2239 110.309C97.4006 111.456 96.3627 112.376 95.1102 113.068C93.8577 113.751 92.4869 114.093 90.9979 114.093ZM109.243 114.093C107.999 114.093 106.83 113.848 105.735 113.357C104.64 112.858 103.677 112.17 102.845 111.294C102.013 110.419 101.36 109.407 100.887 108.26C100.414 107.103 100.178 105.868 100.178 104.555C100.178 103.241 100.414 102.01 100.887 100.863C101.36 99.7065 102.013 98.6905 102.845 97.8146C103.677 96.9387 104.64 96.2556 105.735 95.7651C106.83 95.2658 107.999 95.0162 109.243 95.0162C110.496 95.0162 111.669 95.2658 112.764 95.7651C113.859 96.2556 114.823 96.9387 115.655 97.8146C116.487 98.6905 117.135 99.7065 117.599 100.863C118.072 102.01 118.309 103.241 118.309 104.555C118.309 105.868 118.072 107.103 117.599 108.26C117.135 109.407 116.487 110.419 115.655 111.294C114.823 112.17 113.859 112.858 112.764 113.357C111.669 113.848 110.496 114.093 109.243 114.093ZM109.243 111.36C110.119 111.36 110.938 111.181 111.7 110.821C112.462 110.462 113.132 109.972 113.71 109.35C114.297 108.719 114.752 107.997 115.077 107.182C115.409 106.359 115.576 105.483 115.576 104.555C115.576 103.626 115.409 102.75 115.077 101.927C114.752 101.104 114.297 100.381 113.71 99.7591C113.132 99.1285 112.462 98.638 111.7 98.2876C110.938 97.9285 110.119 97.7489 109.243 97.7489C108.367 97.7489 107.548 97.9285 106.786 98.2876C106.024 98.6467 105.35 99.1416 104.763 99.7722C104.185 100.394 103.73 101.117 103.397 101.94C103.073 102.755 102.911 103.626 102.911 104.555C102.911 105.492 103.073 106.372 103.397 107.195C103.73 108.01 104.185 108.732 104.763 109.363C105.35 109.985 106.024 110.475 106.786 110.835C107.548 111.185 108.367 111.36 109.243 111.36ZM120.796 113.751V95.3578H123.752L132.2 108.811V95.3578H134.932V113.751H131.976L123.528 100.298V113.751H120.796ZM138.091 113.751V95.3578H149.508V98.0905H140.824V102.531H147.813V105.264H140.824V111.019H149.508V113.751H138.091ZM160.769 114.093C159.525 114.093 158.356 113.848 157.261 113.357C156.166 112.858 155.203 112.175 154.371 111.308C153.547 110.432 152.899 109.416 152.426 108.26C151.962 107.103 151.73 105.868 151.73 104.555C151.73 103.241 151.962 102.006 152.426 100.85C152.899 99.6934 153.547 98.6818 154.371 97.8146C155.203 96.9387 156.166 96.2556 157.261 95.7651C158.356 95.2658 159.525 95.0162 160.769 95.0162C162.258 95.0162 163.629 95.3622 164.881 96.0541C166.134 96.7461 167.172 97.6657 167.995 98.8131L165.564 100.114C164.995 99.3956 164.29 98.8219 163.449 98.3927C162.608 97.9635 161.715 97.7489 160.769 97.7489C159.893 97.7489 159.074 97.9285 158.312 98.2876C157.55 98.6467 156.88 99.1372 156.302 99.7591C155.724 100.381 155.273 101.104 154.949 101.927C154.625 102.75 154.463 103.626 154.463 104.555C154.463 105.492 154.625 106.372 154.949 107.195C155.273 108.01 155.724 108.732 156.302 109.363C156.889 109.985 157.563 110.475 158.325 110.835C159.087 111.185 159.902 111.36 160.769 111.36C161.732 111.36 162.63 111.146 163.462 110.716C164.303 110.278 165.004 109.7 165.564 108.982L167.995 110.309C167.172 111.456 166.134 112.376 164.881 113.068C163.629 113.751 162.258 114.093 160.769 114.093ZM184.413 95.3578V98.0905H178.554V113.751H175.821V98.0905H169.975V95.3578H184.413ZM190.775 95.3578H193.968L200.655 113.751H197.765L196.49 110.257H188.253L186.991 113.751H184.088L190.775 95.3578ZM189.264 107.524H195.479L192.365 98.9839L189.264 107.524Z" fill="black" fill-opacity="0.2"/>
</svg>
